<svg xmlns="http://www.w3.org/2000/svg" xmlns:xlink="http://www.w3.org/1999/xlink" width="512" zoomAndPan="magnify" viewBox="0 0 384 383.999986" height="512" preserveAspectRatio="xMidYMid meet" version="1.2"><defs><clipPath id="92cdb811ea"><path d="M 88 21 L 282 21 L 282 271 L 88 271 Z M 88 21 "/></clipPath><clipPath id="67a9a2f240"><path d="M 74.476562 42.035156 L 265.105469 13.515625 L 301.285156 255.320312 L 110.65625 283.84375 Z M 74.476562 42.035156 "/></clipPath><clipPath id="a33b39c6b3"><path d="M 74.476562 42.035156 L 265.105469 13.515625 L 301.285156 255.320312 L 110.65625 283.84375 Z M 74.476562 42.035156 "/></clipPath><clipPath id="45472d01bc"><path d="M 141 112 L 230 112 L 230 240 L 141 240 Z M 141 112 "/></clipPath><clipPath id="4b0502b0c9"><path d="M 74.476562 42.035156 L 265.105469 13.515625 L 301.285156 255.320312 L 110.65625 283.84375 Z M 74.476562 42.035156 "/></clipPath><clipPath id="884664977d"><path d="M 74.476562 42.035156 L 265.105469 13.515625 L 301.285156 255.320312 L 110.65625 283.84375 Z M 74.476562 42.035156 "/></clipPath><clipPath id="c623370f8f"><path d="M 16.878906 258.796875 L 367.125 258.796875 L 367.125 355.546875 L 16.878906 355.546875 Z M 16.878906 258.796875 "/></clipPath><clipPath id="5c20dc832d"><path d="M 58.128906 258.796875 L 325.863281 258.796875 C 336.804688 258.796875 347.296875 263.140625 355.03125 270.875 C 362.765625 278.613281 367.113281 289.105469 367.113281 300.042969 L 367.113281 314.003906 C 367.113281 324.941406 362.765625 335.433594 355.03125 343.171875 C 347.296875 350.90625 336.804688 355.253906 325.863281 355.253906 L 58.128906 355.253906 C 47.1875 355.253906 36.695312 350.90625 28.960938 343.171875 C 21.226562 335.433594 16.878906 324.941406 16.878906 314.003906 L 16.878906 300.042969 C 16.878906 289.105469 21.226562 278.613281 28.960938 270.875 C 36.695312 263.140625 47.1875 258.796875 58.128906 258.796875 Z M 58.128906 258.796875 "/></clipPath><clipPath id="c9d8390f15"><path d="M 33.695312 274.824219 L 200.480469 274.824219 L 200.480469 339.226562 L 33.695312 339.226562 Z M 33.695312 274.824219 "/></clipPath><clipPath id="dce46777d1"><path d="M 55.445312 274.824219 L 178.542969 274.824219 C 184.3125 274.824219 189.84375 277.117188 193.921875 281.195312 C 198.003906 285.273438 200.292969 290.808594 200.292969 296.574219 L 200.292969 317.476562 C 200.292969 323.242188 198.003906 328.777344 193.921875 332.855469 C 189.84375 336.933594 184.3125 339.226562 178.542969 339.226562 L 55.445312 339.226562 C 49.675781 339.226562 44.144531 336.933594 40.066406 332.855469 C 35.988281 328.777344 33.695312 323.242188 33.695312 317.476562 L 33.695312 296.574219 C 33.695312 290.808594 35.988281 285.273438 40.066406 281.195312 C 44.144531 277.117188 49.675781 274.824219 55.445312 274.824219 Z M 55.445312 274.824219 "/></clipPath></defs><g id="1b4687ad9d"><g clip-rule="nonzero" clip-path="url(#92cdb811ea)"><g clip-rule="nonzero" clip-path="url(#67a9a2f240)"><g clip-rule="nonzero" clip-path="url(#a33b39c6b3)"><path style=" stroke:none;fill-rule:evenodd;fill:#5e17eb;fill-opacity:1;" d="M 265.195312 79.71875 C 260.035156 63.242188 250.910156 43.210938 240.808594 31.792969 C 236.269531 26.660156 231.339844 23.042969 226.140625 21.777344 C 220.023438 20.28125 214.125 21.84375 208.785156 27.535156 C 203.746094 32.902344 199.210938 42.503906 195.585938 57.671875 L 153.695312 63.941406 C 145.789062 50.496094 138.644531 42.648438 132.253906 38.988281 C 125.480469 35.105469 119.390625 35.339844 113.972656 38.558594 C 109.378906 41.292969 105.71875 46.195312 102.878906 52.429688 C 96.519531 66.414062 93.660156 88.46875 93.589844 105.796875 C 89.191406 116.503906 87.523438 128.472656 89.351562 140.691406 L 90.335938 147.257812 C 94.394531 174.386719 114.574219 195.316406 139.671875 201.757812 C 139.605469 206.976562 139.910156 212.023438 140.585938 216.859375 C 142.613281 231.382812 147.972656 243.847656 156.261719 253.09375 C 164.769531 262.582031 176.21875 268.605469 190.1875 269.9375 C 195.09375 270.40625 200.339844 270.28125 205.914062 269.507812 L 206.011719 269.492188 C 211.566406 268.601562 216.621094 267.1875 221.175781 265.300781 C 234.140625 259.933594 243.328125 250.832031 248.6875 239.265625 C 253.902344 228.003906 255.382812 214.515625 253.066406 200.027344 C 252.296875 195.214844 251.117188 190.296875 249.523438 185.328125 C 256.921875 180.8125 263.320312 174.902344 268.40625 168.03125 C 278.527344 154.359375 283.449219 136.832031 280.75 118.773438 L 279.765625 112.207031 C 277.914062 99.816406 272.703125 88.726562 265.195312 79.71875 Z M 218.429688 36.578125 C 220.082031 34.820312 221.621094 34.273438 223.03125 34.621094 C 225.367188 35.1875 228.0625 37.359375 230.902344 40.570312 C 235.859375 46.183594 240.617188 54.382812 244.660156 63.171875 C 242.007812 61.789062 239.257812 60.582031 236.433594 59.558594 C 236.433594 59.558594 236.4375 59.554688 236.4375 59.554688 C 229.257812 45.421875 221.59375 39.175781 216.589844 55.6875 C 214.316406 55.601562 212.023438 55.628906 209.710938 55.78125 C 212.394531 45.988281 215.34375 39.855469 218.429688 36.578125 Z M 114.925781 57.917969 C 116.703125 54.015625 118.644531 51.15625 120.710938 49.921875 C 121.960938 49.175781 123.597656 49.25 125.683594 50.449219 C 129.585938 52.6875 134.210938 57.6875 139.648438 66.269531 C 137.832031 66.703125 136.046875 67.207031 134.296875 67.785156 C 124.933594 53.988281 119.492188 61.660156 116.730469 76.667969 C 113.742188 78.792969 110.945312 81.152344 108.363281 83.714844 C 109.65625 74.074219 111.808594 64.773438 114.925781 57.917969 Z M 236.6875 233.714844 C 232.726562 242.261719 225.871094 249.019531 216.144531 253.046875 C 212.46875 254.5625 208.421875 255.703125 204.003906 256.417969 C 199.574219 257.027344 195.371094 257.128906 191.410156 256.746094 C 180.933594 255.742188 172.398438 251.289062 166.109375 244.273438 C 159.597656 237.011719 155.347656 226.941406 153.683594 215 C 153.183594 211.417969 152.921875 207.65625 152.90625 203.742188 C 157.148438 203.945312 161.46875 203.738281 165.816406 203.085938 L 190.359375 199.414062 L 192.050781 210.71875 C 189.425781 211.988281 187.183594 213.882812 185.492188 216.167969 C 182.777344 219.839844 181.457031 224.550781 182.1875 229.421875 C 182.914062 234.292969 185.550781 238.414062 189.226562 241.128906 C 192.898438 243.84375 197.609375 245.164062 202.480469 244.433594 C 207.351562 243.703125 211.472656 241.070312 214.1875 237.394531 C 216.902344 233.722656 218.21875 229.011719 217.492188 224.140625 C 216.761719 219.269531 214.125 215.148438 210.453125 212.433594 C 208.164062 210.742188 205.46875 209.589844 202.585938 209.144531 L 200.894531 197.839844 L 224.90625 194.246094 C 229.257812 193.59375 233.449219 192.53125 237.449219 191.09375 C 238.578125 194.839844 239.425781 198.507812 240 202.082031 C 241.90625 213.984375 240.785156 224.859375 236.6875 233.714844 Z M 197.984375 214.390625 C 201.40625 213.878906 204.714844 214.800781 207.296875 216.710938 C 209.875 218.625 211.726562 221.515625 212.238281 224.9375 C 212.75 228.359375 211.824219 231.667969 209.921875 234.246094 C 208.011719 236.832031 205.117188 238.683594 201.695312 239.195312 C 198.273438 239.707031 194.96875 238.78125 192.386719 236.871094 C 189.804688 234.96875 187.957031 232.070312 187.445312 228.648438 C 186.933594 225.222656 187.855469 221.917969 189.761719 219.335938 C 191.671875 216.753906 194.5625 214.902344 197.984375 214.390625 Z M 267.617188 120.734375 C 269.777344 135.167969 265.828125 149.1875 257.730469 160.136719 C 249.632812 171.085938 237.390625 178.957031 222.949219 181.121094 L 163.855469 189.960938 C 134.964844 194.285156 107.789062 174.183594 103.46875 145.292969 L 102.484375 138.726562 C 100.324219 124.289062 104.273438 110.273438 112.367188 99.324219 C 120.46875 88.378906 132.71875 80.5 147.152344 78.339844 L 206.246094 69.5 C 235.136719 65.175781 262.3125 85.277344 266.632812 114.167969 Z M 244.6875 118.351562 L 245.40625 123.148438 C 246.984375 133.703125 244.101562 143.945312 238.179688 151.949219 C 232.261719 159.953125 223.308594 165.707031 212.757812 167.285156 L 169.558594 173.75 C 148.441406 176.910156 128.578125 162.214844 125.417969 141.097656 L 124.699219 136.296875 C 123.121094 125.742188 126.003906 115.496094 131.925781 107.5 C 137.84375 99.496094 146.796875 93.738281 157.351562 92.160156 L 200.550781 85.699219 C 221.664062 82.542969 241.527344 97.238281 244.6875 118.351562 Z M 244.6875 118.351562 "/></g></g></g><g clip-rule="nonzero" clip-path="url(#45472d01bc)"><g clip-rule="nonzero" clip-path="url(#4b0502b0c9)"><g clip-rule="nonzero" clip-path="url(#884664977d)"><path style=" stroke:none;fill-rule:nonzero;fill:#1ae5be;fill-opacity:1;" d="M 207.296875 216.707031 C 209.871094 218.617188 211.722656 221.507812 212.234375 224.933594 C 212.75 228.355469 211.824219 231.660156 209.917969 234.242188 C 208.007812 236.824219 205.117188 238.675781 201.695312 239.1875 C 198.273438 239.699219 194.964844 238.777344 192.382812 236.867188 C 189.800781 234.960938 187.957031 232.0625 187.445312 228.640625 C 186.933594 225.21875 187.855469 221.914062 189.761719 219.332031 C 191.664062 216.75 194.5625 214.898438 197.984375 214.386719 C 201.414062 213.878906 204.71875 214.800781 207.296875 216.707031 Z M 162.296875 121.976562 C 159.976562 121.199219 157.566406 121.054688 155.25 121.453125 C 152.945312 121.847656 150.742188 122.789062 148.8125 124.199219 C 144.480469 127.367188 141.5 132.882812 141.917969 139.898438 C 141.960938 140.597656 142.265625 141.191406 142.816406 141.628906 C 143.363281 142.066406 144.011719 142.230469 144.707031 142.113281 L 145.214844 142.027344 C 146.421875 141.824219 147.273438 140.757812 147.203125 139.542969 C 146.929688 134.511719 148.960938 130.640625 151.925781 128.476562 C 153.199219 127.542969 154.640625 126.921875 156.132812 126.664062 C 157.609375 126.410156 159.152344 126.503906 160.640625 127 C 164.261719 128.207031 167.605469 131.808594 169.214844 138.492188 C 169.503906 139.714844 170.6875 140.5 171.929688 140.292969 L 172.429688 140.210938 C 173.109375 140.097656 173.648438 139.75 174.027344 139.175781 C 174.410156 138.597656 174.519531 137.96875 174.363281 137.296875 C 172.269531 128.554688 167.523438 123.714844 162.296875 121.976562 Z M 218.742188 113.742188 C 216.480469 112.957031 214.097656 112.703125 211.78125 113 C 209.449219 113.296875 207.1875 114.144531 205.195312 115.5625 C 200.710938 118.753906 197.585938 124.769531 198.144531 133.75 C 198.183594 134.4375 198.480469 135.007812 199.011719 135.449219 C 199.546875 135.886719 200.164062 136.0625 200.847656 135.972656 L 201.347656 135.902344 C 202.59375 135.738281 203.496094 134.640625 203.417969 133.386719 C 203 126.53125 205.140625 122.101562 208.253906 119.886719 C 209.53125 118.976562 210.976562 118.4375 212.464844 118.25 C 213.96875 118.058594 215.527344 118.230469 217.015625 118.746094 C 220.484375 119.949219 223.566406 123.054688 224.769531 127.945312 C 225.0625 129.132812 226.183594 129.902344 227.398438 129.742188 L 227.914062 129.675781 C 228.609375 129.582031 229.175781 129.242188 229.574219 128.660156 C 229.96875 128.082031 230.09375 127.425781 229.925781 126.742188 C 228.273438 119.902344 223.808594 115.496094 218.742188 113.742188 Z M 218.742188 113.742188 "/></g></g></g><g clip-rule="nonzero" clip-path="url(#c623370f8f)"><g clip-rule="nonzero" clip-path="url(#5c20dc832d)"><path style="fill:none;stroke-width:10;stroke-linecap:butt;stroke-linejoin:miter;stroke:#5e17eb;stroke-opacity:1;stroke-miterlimit:4;" d="M 54.999852 0.00252732 L 411.97907 0.00252732 C 426.567613 0.00252732 440.557199 5.794195 450.8697 16.106696 C 461.182202 26.424406 466.979078 40.413991 466.979078 54.997327 L 466.979078 73.611913 C 466.979078 88.195248 461.182202 102.184834 450.8697 112.502543 C 440.557199 122.815045 426.567613 128.611921 411.97907 128.611921 L 54.999852 128.611921 C 40.411308 128.611921 26.421723 122.815045 16.109221 112.502543 C 5.79672 102.184834 -0.000155965 88.195248 -0.000155965 73.611913 L -0.000155965 54.997327 C -0.000155965 40.413991 5.79672 26.424406 16.109221 16.106696 C 26.421723 5.794195 40.411308 0.00252732 54.999852 0.00252732 Z M 54.999852 0.00252732 " transform="matrix(0.75,0,0,0.75,16.879023,258.79498)"/></g></g><g clip-rule="nonzero" clip-path="url(#c9d8390f15)"><g clip-rule="nonzero" clip-path="url(#dce46777d1)"><path style=" stroke:none;fill-rule:nonzero;fill:#5e17eb;fill-opacity:1;" d="M 33.695312 274.824219 L 200.230469 274.824219 L 200.230469 339.226562 L 33.695312 339.226562 Z M 33.695312 274.824219 "/></g></g><g style="fill:#1ae5be;fill-opacity:1;"><g transform="translate(64.059729, 319.678905)"><path style="stroke:none" d="M 12.671875 0.40625 C 11.097656 0.40625 9.644531 0.128906 8.3125 -0.421875 C 6.976562 -0.984375 5.820312 -1.757812 4.84375 -2.75 C 3.875 -3.75 3.117188 -4.929688 2.578125 -6.296875 C 2.046875 -7.660156 1.78125 -9.148438 1.78125 -10.765625 C 1.78125 -12.390625 2.046875 -13.882812 2.578125 -15.25 C 3.117188 -16.613281 3.875 -17.789062 4.84375 -18.78125 C 5.820312 -19.78125 6.976562 -20.554688 8.3125 -21.109375 C 9.644531 -21.660156 11.097656 -21.9375 12.671875 -21.9375 C 14.378906 -21.9375 15.941406 -21.625 17.359375 -21 C 18.785156 -20.375 20.003906 -19.476562 21.015625 -18.3125 C 22.035156 -17.15625 22.785156 -15.789062 23.265625 -14.21875 L 20.359375 -14.21875 C 19.804688 -15.769531 18.847656 -16.992188 17.484375 -17.890625 C 16.117188 -18.785156 14.546875 -19.234375 12.765625 -19.234375 C 11.171875 -19.234375 9.753906 -18.875 8.515625 -18.15625 C 7.285156 -17.4375 6.316406 -16.441406 5.609375 -15.171875 C 4.898438 -13.898438 4.546875 -12.429688 4.546875 -10.765625 C 4.546875 -9.109375 4.898438 -7.644531 5.609375 -6.375 C 6.316406 -5.101562 7.285156 -4.109375 8.515625 -3.390625 C 9.753906 -2.671875 11.171875 -2.3125 12.765625 -2.3125 C 14.585938 -2.3125 16.207031 -2.78125 17.625 -3.71875 C 19.039062 -4.664062 20.023438 -5.945312 20.578125 -7.5625 L 23.4375 -7.5625 C 23.007812 -5.96875 22.273438 -4.570312 21.234375 -3.375 C 20.203125 -2.1875 18.953125 -1.257812 17.484375 -0.59375 C 16.023438 0.0703125 14.421875 0.40625 12.671875 0.40625 Z M 12.671875 0.40625 "/></g></g><g style="fill:#1ae5be;fill-opacity:1;"><g transform="translate(91.504282, 319.678905)"><path style="stroke:none" d="M 17.265625 0 L 17.265625 -9.6875 L 5.84375 -9.6875 L 5.84375 0 L 3.140625 0 L 3.140625 -21.53125 L 5.84375 -21.53125 L 5.84375 -12.28125 L 17.265625 -12.28125 L 17.265625 -21.53125 L 19.96875 -21.53125 L 19.96875 0 Z M 17.265625 0 "/></g></g><g style="fill:#1ae5be;fill-opacity:1;"><g transform="translate(116.948982, 319.678905)"><path style="stroke:none" d="M 11.203125 0.375 C 8.597656 0.375 6.5625 -0.429688 5.09375 -2.046875 C 3.625 -3.671875 2.890625 -5.910156 2.890625 -8.765625 L 2.890625 -21.53125 L 5.5625 -21.53125 L 5.5625 -8.953125 C 5.5625 -6.753906 6.039062 -5.09375 7 -3.96875 C 7.96875 -2.84375 9.367188 -2.28125 11.203125 -2.28125 C 14.953125 -2.28125 16.828125 -4.503906 16.828125 -8.953125 L 16.828125 -21.53125 L 19.53125 -21.53125 L 19.53125 -8.765625 C 19.53125 -5.910156 18.789062 -3.671875 17.3125 -2.046875 C 15.84375 -0.429688 13.804688 0.375 11.203125 0.375 Z M 11.203125 0.375 "/></g></g><g style="fill:#1ae5be;fill-opacity:1;"><g transform="translate(141.716814, 319.678905)"><path style="stroke:none" d="M 3.140625 0 L 3.140625 -21.53125 L 5.65625 -21.53125 L 14.125 -8.765625 L 22.515625 -21.53125 L 25.046875 -21.53125 L 25.046875 0 L 22.328125 0 L 22.328125 -16.453125 L 15.203125 -5.71875 L 12.984375 -5.71875 L 5.84375 -16.484375 L 5.84375 0 Z M 3.140625 0 "/></g></g><g style="fill:#5e17eb;fill-opacity:1;"><g transform="translate(222.763189, 320.007619)"><path style="stroke:none" d="M 12.34375 0.46875 C 10.101562 0.46875 8.132812 -0.00390625 6.4375 -0.953125 C 4.75 -1.898438 3.425781 -3.21875 2.46875 -4.90625 C 1.519531 -6.59375 1.046875 -8.546875 1.046875 -10.765625 C 1.046875 -12.984375 1.515625 -14.9375 2.453125 -16.625 C 3.398438 -18.320312 4.71875 -19.640625 6.40625 -20.578125 C 8.101562 -21.523438 10.0625 -22 12.28125 -22 C 14.207031 -22 15.945312 -21.628906 17.5 -20.890625 C 19.0625 -20.148438 20.367188 -19.113281 21.421875 -17.78125 C 22.484375 -16.445312 23.195312 -14.867188 23.5625 -13.046875 L 17.296875 -13.046875 C 16.960938 -14.003906 16.363281 -14.773438 15.5 -15.359375 C 14.644531 -15.953125 13.648438 -16.25 12.515625 -16.25 C 11.515625 -16.25 10.625 -16.015625 9.84375 -15.546875 C 9.0625 -15.085938 8.453125 -14.445312 8.015625 -13.625 C 7.578125 -12.8125 7.359375 -11.859375 7.359375 -10.765625 C 7.359375 -9.703125 7.570312 -8.753906 8 -7.921875 C 8.425781 -7.085938 9.023438 -6.441406 9.796875 -5.984375 C 10.566406 -5.523438 11.453125 -5.296875 12.453125 -5.296875 C 13.628906 -5.296875 14.644531 -5.597656 15.5 -6.203125 C 16.363281 -6.804688 16.988281 -7.609375 17.375 -8.609375 L 23.6875 -8.609375 C 23.382812 -6.785156 22.707031 -5.191406 21.65625 -3.828125 C 20.613281 -2.460938 19.296875 -1.40625 17.703125 -0.65625 C 16.117188 0.09375 14.332031 0.46875 12.34375 0.46875 Z M 12.34375 0.46875 "/></g></g><g style="fill:#5e17eb;fill-opacity:1;"><g transform="translate(247.435229, 320.007619)"><path style="stroke:none" d="M 15.140625 0 L 15.140625 -8.09375 L 8.484375 -8.09375 L 8.484375 0 L 2.28125 0 L 2.28125 -21.53125 L 8.484375 -21.53125 L 8.484375 -13.8125 L 15.140625 -13.8125 L 15.140625 -21.53125 L 21.34375 -21.53125 L 21.34375 0 Z M 15.140625 0 "/></g></g><g style="fill:#5e17eb;fill-opacity:1;"><g transform="translate(271.061321, 320.007619)"><path style="stroke:none" d="M 12.765625 0.46875 C 11.046875 0.46875 9.472656 0.195312 8.046875 -0.34375 C 6.617188 -0.894531 5.378906 -1.671875 4.328125 -2.671875 C 3.285156 -3.679688 2.476562 -4.875 1.90625 -6.25 C 1.332031 -7.625 1.046875 -9.128906 1.046875 -10.765625 C 1.046875 -12.410156 1.332031 -13.921875 1.90625 -15.296875 C 2.476562 -16.671875 3.285156 -17.859375 4.328125 -18.859375 C 5.378906 -19.859375 6.617188 -20.628906 8.046875 -21.171875 C 9.472656 -21.722656 11.046875 -22 12.765625 -22 C 14.492188 -22 16.066406 -21.722656 17.484375 -21.171875 C 18.910156 -20.628906 20.144531 -19.859375 21.1875 -18.859375 C 22.238281 -17.859375 23.050781 -16.671875 23.625 -15.296875 C 24.195312 -13.921875 24.484375 -12.410156 24.484375 -10.765625 C 24.484375 -9.128906 24.195312 -7.625 23.625 -6.25 C 23.050781 -4.875 22.238281 -3.679688 21.1875 -2.671875 C 20.144531 -1.671875 18.910156 -0.894531 17.484375 -0.34375 C 16.066406 0.195312 14.492188 0.46875 12.765625 0.46875 Z M 7.359375 -10.765625 C 7.359375 -9.703125 7.585938 -8.753906 8.046875 -7.921875 C 8.503906 -7.085938 9.144531 -6.441406 9.96875 -5.984375 C 10.789062 -5.523438 11.722656 -5.296875 12.765625 -5.296875 C 13.835938 -5.296875 14.773438 -5.523438 15.578125 -5.984375 C 16.390625 -6.441406 17.023438 -7.085938 17.484375 -7.921875 C 17.953125 -8.753906 18.1875 -9.703125 18.1875 -10.765625 C 18.1875 -11.859375 17.953125 -12.8125 17.484375 -13.625 C 17.023438 -14.445312 16.390625 -15.085938 15.578125 -15.546875 C 14.773438 -16.015625 13.835938 -16.25 12.765625 -16.25 C 11.722656 -16.25 10.789062 -16.015625 9.96875 -15.546875 C 9.144531 -15.085938 8.503906 -14.445312 8.046875 -13.625 C 7.585938 -12.8125 7.359375 -11.859375 7.359375 -10.765625 Z M 7.359375 -10.765625 "/></g></g><g style="fill:#5e17eb;fill-opacity:1;"><g transform="translate(296.625494, 320.007619)"><path style="stroke:none" d="M 2.28125 0 L 2.28125 -21.53125 L 7.359375 -21.53125 L 15.53125 -10.609375 L 15.53125 -21.53125 L 21.65625 -21.53125 L 21.65625 0 L 16.609375 0 L 8.4375 -10.984375 L 8.4375 0 Z M 2.28125 0 "/></g></g></g></svg>